<?xml version="1.0" encoding="utf-8"?>
<!-- Generator: Adobe Illustrator 23.0.1, SVG Export Plug-In . SVG Version: 6.00 Build 0)  -->
<svg version="1.0" id="Layer_1" xmlns="http://www.w3.org/2000/svg" xmlns:xlink="http://www.w3.org/1999/xlink" x="0px" y="0px"
	 viewBox="0 0 276 75" style="enable-background:new 0 0 276 75;" xml:space="preserve">
<g>
	<path d="M22.7,56.3c-2.5,2.4-5.5,3.6-9,3.6s-6.5-1.2-9-3.6C2.3,53.9,1,51,1,47.7V27.4c0-3.3,1.2-6.2,3.7-8.5
		c2.5-2.4,5.5-3.6,8.9-3.6c2.6,0,4.8,0.7,6.8,2c2,1.3,3.5,2.8,4.4,4.4c0.9,1.6,1.4,3.2,1.4,4.6c0,0.5-0.2,1-0.5,1.3
		c-0.3,0.4-0.8,0.5-1.3,0.5h-3.7c-1.1,0-1.8-0.6-2-1.9c-0.2-0.9-0.7-1.7-1.6-2.6c-0.9-0.9-2-1.3-3.4-1.3c-1.4,0-2.5,0.5-3.6,1.4
		c-1,0.9-1.5,2-1.5,3.3v21c0,1.3,0.5,2.4,1.5,3.3c1,0.9,2.2,1.4,3.6,1.4c1.4,0,2.7-0.5,3.7-1.4c1.1-0.9,1.6-2.2,1.6-3.8
		c0-0.5,0.2-1,0.5-1.3c0.4-0.4,0.8-0.5,1.3-0.5h3.6c0.5,0,1,0.2,1.3,0.5c0.4,0.4,0.5,0.8,0.5,1.3C26.4,51,25.2,53.9,22.7,56.3z"/>
	<path d="M63.1,39.2c0.2,0.8,0.3,1.6,0.3,2.4v15.9c0,0.5-0.2,1-0.5,1.3c-0.4,0.4-0.8,0.5-1.3,0.5h-3.6c-0.5,0-1-0.2-1.3-0.5
		c-0.4-0.4-0.5-0.8-0.5-1.3v-11H44.8v11c0,0.5-0.2,1-0.5,1.3c-0.4,0.4-0.8,0.5-1.3,0.5h-3.6c-0.5,0-1-0.2-1.3-0.5
		c-0.4-0.4-0.5-0.8-0.5-1.3V41.6c0-0.7,0.1-1.5,0.3-2.4l6.3-21.6c0.3-1.1,1-1.7,2.1-1.7h8.4c1.1,0,1.8,0.6,2.1,1.7L63.1,39.2z
		 M51.1,23.2h-1.2l-4.3,16h9.9L51.1,23.2z"/>
	<path d="M84.3,23.7c-0.9,0.9-1.4,1.9-1.4,3.1c0,1.3,0.6,2.4,1.8,3.5c1.2,1.1,2.6,2,4.3,2.9c1.7,0.9,3.4,1.9,5.1,3
		c1.7,1.1,3.2,2.7,4.4,4.6c1.2,2,1.8,4.3,1.8,6.9c0,3.3-1.2,6.2-3.7,8.5c-2.5,2.4-5.5,3.6-9,3.6c-3.5,0-6.5-1.2-9-3.6
		C76.2,53.9,75,51,75,47.6c0-0.5,0.2-1,0.5-1.3c0.4-0.4,0.8-0.5,1.3-0.5h3.6c0.5,0,1,0.2,1.3,0.5c0.4,0.4,0.5,0.8,0.5,1.3
		c0,1.7,0.5,2.9,1.6,3.8c1.1,0.9,2.3,1.4,3.7,1.4c1.4,0,2.6-0.5,3.6-1.4c0.9-1,1.4-2,1.4-3.2c0-1.6-0.6-3-1.8-4.2
		c-1.2-1.2-2.6-2.2-4.3-3.1c-1.7-0.9-3.4-1.8-5.1-2.8c-1.7-1-3.1-2.4-4.3-4.2c-1.2-1.8-1.8-4-1.8-6.5c0-3.4,1.2-6.3,3.6-8.6
		c2.4-2.3,5.3-3.5,8.6-3.5c3.7,0,6.6,1.2,8.7,3.7c2.1,2.4,3.2,4.9,3.2,7.3c0,0.5-0.2,1-0.5,1.3c-0.3,0.4-0.8,0.5-1.3,0.5H94
		c-1,0-1.7-0.6-2-1.9c-0.2-0.9-0.8-1.8-1.5-2.7c-0.8-0.8-1.7-1.2-2.9-1.2C86.4,22.4,85.3,22.8,84.3,23.7z"/>
	<path d="M137.4,39.2c0.2,0.8,0.3,1.6,0.3,2.4v15.9c0,0.5-0.2,1-0.5,1.3c-0.4,0.4-0.8,0.5-1.3,0.5h-3.6c-0.5,0-1-0.2-1.3-0.5
		c-0.4-0.4-0.5-0.8-0.5-1.3v-11h-11.3v11c0,0.5-0.2,1-0.5,1.3c-0.4,0.4-0.8,0.5-1.3,0.5h-3.6c-0.5,0-1-0.2-1.3-0.5
		c-0.4-0.4-0.5-0.8-0.5-1.3V41.6c0-0.7,0.1-1.5,0.3-2.4l6.3-21.6c0.3-1.1,1-1.7,2.1-1.7h8.4c1.1,0,1.8,0.6,2.1,1.7L137.4,39.2z
		 M125.4,23.2h-1.2l-4.3,16h9.9L125.4,23.2z"/>
	<path d="M152.8,23.4c-0.4,0-0.8-0.1-1.1-0.4c-0.3-0.3-0.5-0.7-0.5-1.1v-3.5c0-0.8,0.5-1.3,1.5-1.5l6.3-1h6.1c0.5,0,0.9,0.1,1.2,0.4
		c0.4,0.3,0.6,0.6,0.6,1.1v34.8h7.6c0.4,0,0.8,0.1,1.1,0.4s0.5,0.6,0.5,1.1v4.1c0,0.4-0.2,0.8-0.5,1.1c-0.3,0.3-0.7,0.4-1.1,0.4h-23
		c-0.4,0-0.8-0.1-1.1-0.4c-0.3-0.3-0.5-0.6-0.5-1.1v-4.1c0-0.4,0.2-0.8,0.5-1.1s0.7-0.4,1.1-0.4h7.9V22.4L152.8,23.4z"/>
	<path d="M188.7,59.3c-0.6,0-1.1-0.2-1.5-0.6c-0.5-0.4-0.7-0.8-0.7-1.4v-3.7c0-2.1,0.4-4.2,1.3-6.2c0.9-2,1.9-3.6,3.2-5
		c1.3-1.4,2.7-2.7,4.2-4.1c1.5-1.4,2.9-2.7,4.2-3.7c1.3-1.1,2.4-2.3,3.2-3.7s1.3-2.8,1.3-4.1c0-1.2-0.4-2.3-1.3-3.1
		c-0.9-0.8-1.9-1.2-3.2-1.2c-2.4,0-4,1.5-4.7,4.6c-0.3,1.2-0.9,1.9-2,1.9H189c-0.5,0-1-0.2-1.3-0.5c-0.3-0.4-0.5-0.8-0.5-1.3
		c0-1.1,0.2-2.3,0.7-3.5c0.5-1.3,1.1-2.5,2-3.8c0.9-1.3,2.2-2.3,3.8-3.1c1.7-0.8,3.5-1.2,5.6-1.2c3.5,0,6.4,1.1,8.7,3.4
		c2.4,2.3,3.5,5.1,3.5,8.5c0,2.2-0.6,4.3-1.8,6.3c-1.2,2-2.6,3.8-4.3,5.4c-1.7,1.5-3.4,3-5,4.4c-1.7,1.4-3.1,2.9-4.4,4.4
		c-1.2,1.5-1.9,3-2,4.4h15.6c0.5,0,1,0.2,1.3,0.5c0.4,0.4,0.5,0.8,0.5,1.3v3.4c0,0.5-0.2,1-0.5,1.3c-0.4,0.4-0.8,0.5-1.3,0.5H188.7z
		"/>
	<path d="M223.3,47c0.4-0.4,0.8-0.5,1.3-0.5h4c1.1,0,1.7,0.6,1.9,1.9c0.2,1.2,0.7,2.1,1.5,2.9c0.8,0.8,2,1.2,3.5,1.2
		c1.4,0,2.5-0.4,3.4-1.3c0.9-0.9,1.3-2,1.3-3.3v-8.2c0-0.9-0.3-1.6-0.9-2.2c-0.6-0.6-1.3-0.9-2.2-0.9h-4c-0.5,0-1-0.2-1.3-0.6
		c-0.4-0.4-0.5-0.8-0.5-1.4v-2.4c0-1,0.4-2.1,1.2-3.1l4.5-6h-10.2c-0.5,0-1-0.2-1.3-0.5c-0.4-0.4-0.5-0.8-0.5-1.3v-3.4
		c0-0.5,0.2-1,0.5-1.3c0.4-0.4,0.8-0.5,1.3-0.5h18.4c0.5,0,1,0.2,1.3,0.6c0.4,0.4,0.5,0.8,0.5,1.4v2.4c0,1-0.4,2.1-1.2,3.1l-4.6,6.3
		c2,0.7,3.7,2,4.9,3.7c1.3,1.7,1.9,3.8,1.9,6.3v8.2c0,3.3-1.2,6.2-3.7,8.5c-2.5,2.4-5.4,3.5-8.9,3.5c-3.5,0-6.4-1.2-8.9-3.5
		c-2.5-2.3-3.7-5-3.7-8.1C222.7,47.8,222.9,47.3,223.3,47z"/>
</g>
</svg>
